<svg width="268" height="55" viewBox="0 0 268 55" fill="none" xmlns="http://www.w3.org/2000/svg">
<path d="M0 16.46C0 14.6133 0 13.6899 0.563747 13.1082C0.578323 13.0931 0.593134 13.0783 0.608174 13.0637C1.18992 12.5 2.11328 12.5 3.96 12.5H251.102C251.787 12.5 252.13 12.5 252.447 12.3904C252.455 12.3875 252.464 12.3845 252.473 12.3814C252.788 12.2675 253.055 12.0525 253.588 11.6225L261.554 5.19831C264.319 2.96858 265.701 1.85372 266.822 2.35898C266.849 2.37131 266.876 2.38425 266.903 2.3978C268 2.95295 268 4.7289 268 8.28082V12.5V51.04C268 52.8867 268 53.8101 267.436 54.3918C267.422 54.4069 267.407 54.4217 267.392 54.4363C266.81 55 265.887 55 264.04 55H3.96C2.11328 55 1.18992 55 0.608174 54.4363C0.593134 54.4217 0.578323 54.4069 0.563747 54.3918C0 53.8101 0 52.8867 0 51.04V16.46Z" fill="#4DDBFF"/>
<path d="M59.9527 36.2529C59.8368 37.4809 59.3836 38.44 58.593 39.1304C57.8025 39.8155 56.7511 40.1581 55.4388 40.1581C54.5218 40.1581 53.7128 39.942 53.0119 39.5099C52.3162 39.0724 51.7787 38.4532 51.3992 37.6521C51.0198 36.8511 50.8221 35.9209 50.8063 34.8616V33.7865C50.8063 32.7008 50.9987 31.7443 51.3834 30.9168C51.7681 30.0894 52.3189 29.4517 53.0356 29.0038C53.7576 28.5558 54.5903 28.3318 55.5337 28.3318C56.8038 28.3318 57.8262 28.677 58.6009 29.3674C59.3757 30.0578 59.8263 31.0328 59.9527 32.2924H57.9606C57.8657 31.4649 57.6233 30.8694 57.2333 30.5058C56.8486 30.1369 56.2821 29.9524 55.5337 29.9524C54.6641 29.9524 53.9948 30.2712 53.5258 30.9089C53.062 31.5414 52.8248 32.4715 52.8143 33.6995V34.7193C52.8143 35.963 53.0356 36.9117 53.4783 37.5652C53.9263 38.2187 54.5798 38.5454 55.4388 38.5454C56.2241 38.5454 56.8143 38.3689 57.2096 38.0158C57.6049 37.6627 57.8552 37.075 57.9606 36.2529H59.9527ZM61.2018 35.6442C61.2018 34.8062 61.3678 34.0526 61.6998 33.3833C62.0318 32.7087 62.4982 32.1922 63.099 31.8339C63.6998 31.4702 64.3902 31.2884 65.1702 31.2884C66.3244 31.2884 67.2598 31.6599 67.9766 32.403C68.6986 33.1461 69.0886 34.1317 69.1466 35.3596L69.1545 35.8102C69.1545 36.6534 68.9911 37.4071 68.6644 38.0711C68.3429 38.7352 67.8791 39.249 67.273 39.6126C66.6722 39.9763 65.9766 40.1581 65.186 40.1581C63.9792 40.1581 63.0121 39.7576 62.2848 38.9565C61.5628 38.1502 61.2018 37.0777 61.2018 35.7391V35.6442ZM63.1228 35.8102C63.1228 36.6903 63.3046 37.3807 63.6682 37.8814C64.0319 38.3768 64.5378 38.6245 65.186 38.6245C65.8343 38.6245 66.3376 38.3715 66.6959 37.8656C67.0596 37.3596 67.2414 36.6192 67.2414 35.6442C67.2414 34.7799 67.0543 34.0948 66.6801 33.5888C66.3112 33.0829 65.8079 32.8299 65.1702 32.8299C64.5431 32.8299 64.045 33.0803 63.6761 33.5809C63.3072 34.0763 63.1228 34.8194 63.1228 35.8102ZM72.5617 31.4465L72.617 32.4347C73.2494 31.6705 74.0795 31.2884 75.1071 31.2884C76.8885 31.2884 77.7949 32.3082 77.8266 34.3477V40H75.9056V34.4584C75.9056 33.9156 75.787 33.515 75.5498 33.2568C75.318 32.9933 74.9359 32.8615 74.4036 32.8615C73.6289 32.8615 73.0518 33.212 72.6723 33.9129V40H70.7513V31.4465H72.5617ZM82.1982 29.3674V31.4465H83.7081V32.8694H82.1982V37.6442C82.1982 37.971 82.2614 38.2081 82.3879 38.3557C82.5197 38.498 82.7515 38.5691 83.0836 38.5691C83.3049 38.5691 83.5289 38.5428 83.7555 38.4901V39.9763C83.3181 40.0975 82.8965 40.1581 82.4907 40.1581C81.015 40.1581 80.2772 39.3439 80.2772 37.7154V32.8694H78.8701V31.4465H80.2772V29.3674H82.1982ZM90.2932 40C90.2089 39.8366 90.1351 39.5705 90.0718 39.2016C89.4605 39.8393 88.7121 40.1581 87.8267 40.1581C86.9677 40.1581 86.2668 39.913 85.7239 39.4229C85.1811 38.9328 84.9097 38.3267 84.9097 37.6047C84.9097 36.693 85.247 35.9947 85.9216 35.5098C86.6014 35.0197 87.5711 34.7746 88.8307 34.7746H90.0086V34.2133C90.0086 33.7706 89.8847 33.4175 89.637 33.154C89.3893 32.8853 89.0125 32.7509 88.5066 32.7509C88.0692 32.7509 87.7108 32.8615 87.4315 33.0829C87.1522 33.299 87.0125 33.5756 87.0125 33.9129H85.0915C85.0915 33.4439 85.247 33.0065 85.5579 32.6007C85.8689 32.1896 86.2905 31.8681 86.8228 31.6362C87.3603 31.4043 87.9585 31.2884 88.6173 31.2884C89.6186 31.2884 90.417 31.5414 91.0126 32.0473C91.6081 32.548 91.9138 33.2542 91.9296 34.1659V38.0237C91.9296 38.7931 92.0376 39.4071 92.2537 39.8656V40H90.2932ZM88.1825 38.6166C88.5619 38.6166 88.9177 38.5243 89.2497 38.3399C89.587 38.1554 89.8399 37.9077 90.0086 37.5968V35.9841H88.973C88.2615 35.9841 87.7266 36.108 87.3682 36.3557C87.0099 36.6034 86.8307 36.9538 86.8307 37.4071C86.8307 37.776 86.9519 38.0711 87.1943 38.2925C87.442 38.5085 87.7714 38.6166 88.1825 38.6166ZM97.4554 38.6245C97.9349 38.6245 98.3328 38.4848 98.6491 38.2055C98.9653 37.9262 99.1339 37.581 99.155 37.1699H100.965C100.944 37.7022 100.778 38.2002 100.467 38.664C100.156 39.1225 99.7347 39.4862 99.2024 39.7549C98.6701 40.0237 98.0957 40.1581 97.4791 40.1581C96.2827 40.1581 95.3341 39.7707 94.6332 38.996C93.9322 38.2213 93.5818 37.1515 93.5818 35.7865V35.5889C93.5818 34.2871 93.9296 33.2463 94.6253 32.4663C95.3209 31.681 96.2696 31.2884 97.4712 31.2884C98.4883 31.2884 99.3157 31.5862 99.9534 32.1817C100.596 32.7719 100.934 33.5493 100.965 34.5137H99.155C99.1339 34.0236 98.9653 33.6204 98.6491 33.3042C98.3381 32.988 97.9402 32.8299 97.4554 32.8299C96.8335 32.8299 96.3539 33.0565 96.0166 33.5098C95.6793 33.9577 95.508 34.6402 95.5028 35.5572V35.8655C95.5028 36.7931 95.6688 37.4861 96.0008 37.9446C96.3381 38.3979 96.8229 38.6245 97.4554 38.6245ZM104.823 29.3674V31.4465H106.333V32.8694H104.823V37.6442C104.823 37.971 104.886 38.2081 105.013 38.3557C105.145 38.498 105.376 38.5691 105.708 38.5691C105.93 38.5691 106.154 38.5428 106.38 38.4901V39.9763C105.943 40.0975 105.521 40.1581 105.116 40.1581C103.64 40.1581 102.902 39.3439 102.902 37.7154V32.8694H101.495V31.4465H102.902V29.3674H104.823ZM114.831 37.249L116.57 31.4465H118.618L115.219 41.2965C114.697 42.7352 113.811 43.4546 112.562 43.4546C112.283 43.4546 111.975 43.4072 111.637 43.3123V41.8261L112.001 41.8498C112.486 41.8498 112.85 41.7602 113.092 41.5811C113.34 41.4071 113.535 41.112 113.677 40.6957L113.954 39.9605L110.95 31.4465H113.021L114.831 37.249ZM119.242 35.6442C119.242 34.8062 119.408 34.0526 119.74 33.3833C120.072 32.7087 120.539 32.1922 121.14 31.8339C121.74 31.4702 122.431 31.2884 123.211 31.2884C124.365 31.2884 125.3 31.6599 126.017 32.403C126.739 33.1461 127.129 34.1317 127.187 35.3596L127.195 35.8102C127.195 36.6534 127.032 37.4071 126.705 38.0711C126.383 38.7352 125.92 39.249 125.314 39.6126C124.713 39.9763 124.017 40.1581 123.227 40.1581C122.02 40.1581 121.053 39.7576 120.325 38.9565C119.603 38.1502 119.242 37.0777 119.242 35.7391V35.6442ZM121.163 35.8102C121.163 36.6903 121.345 37.3807 121.709 37.8814C122.072 38.3768 122.578 38.6245 123.227 38.6245C123.875 38.6245 124.378 38.3715 124.736 37.8656C125.1 37.3596 125.282 36.6192 125.282 35.6442C125.282 34.7799 125.095 34.0948 124.721 33.5888C124.352 33.0829 123.848 32.8299 123.211 32.8299C122.584 32.8299 122.086 33.0803 121.717 33.5809C121.348 34.0763 121.163 34.8194 121.163 35.8102ZM134.001 39.162C133.438 39.8261 132.636 40.1581 131.598 40.1581C130.671 40.1581 129.967 39.8867 129.488 39.3439C129.013 38.801 128.776 38.0158 128.776 36.9881V31.4465H130.697V36.9644C130.697 38.05 131.148 38.5929 132.049 38.5929C132.982 38.5929 133.611 38.2582 133.938 37.5889V31.4465H135.859V40H134.049L134.001 39.162ZM142.294 33.2015C142.041 33.1593 141.78 33.1382 141.511 33.1382C140.631 33.1382 140.038 33.4755 139.733 34.1501V40H137.812V31.4465H139.646L139.693 32.403C140.157 31.6599 140.8 31.2884 141.622 31.2884C141.896 31.2884 142.123 31.3253 142.302 31.3991L142.294 33.2015ZM149.346 31.4465L149.401 32.3398C150.002 31.6389 150.824 31.2884 151.867 31.2884C153.011 31.2884 153.794 31.7258 154.215 32.6007C154.837 31.7258 155.712 31.2884 156.84 31.2884C157.783 31.2884 158.484 31.5493 158.943 32.071C159.406 32.5928 159.644 33.3622 159.654 34.3794V40H157.733V34.4347C157.733 33.8919 157.614 33.494 157.377 33.241C157.14 32.988 156.748 32.8615 156.199 32.8615C155.762 32.8615 155.404 32.9801 155.124 33.2173C154.85 33.4492 154.658 33.7548 154.547 34.1343L154.555 40H152.634V34.3714C152.608 33.3648 152.094 32.8615 151.093 32.8615C150.323 32.8615 149.778 33.1751 149.456 33.8023V40H147.535V31.4465H149.346ZM165.393 40.1581C164.176 40.1581 163.188 39.776 162.429 39.0118C161.675 38.2424 161.298 37.22 161.298 35.9446V35.7074C161.298 34.8537 161.462 34.0921 161.788 33.4228C162.12 32.7482 162.584 32.2238 163.18 31.8497C163.775 31.4755 164.439 31.2884 165.172 31.2884C166.337 31.2884 167.235 31.6599 167.868 32.403C168.505 33.1461 168.824 34.1975 168.824 35.5572V36.332H163.235C163.293 37.0382 163.528 37.5968 163.939 38.0079C164.355 38.4189 164.877 38.6245 165.504 38.6245C166.384 38.6245 167.101 38.2687 167.654 37.5573L168.69 38.5454C168.347 39.0566 167.889 39.4545 167.314 39.7391C166.745 40.0184 166.105 40.1581 165.393 40.1581ZM165.164 32.8299C164.637 32.8299 164.21 33.0144 163.883 33.3833C163.562 33.7522 163.356 34.266 163.267 34.9248H166.927V34.7825C166.885 34.1396 166.713 33.6547 166.413 33.3279C166.113 32.9959 165.696 32.8299 165.164 32.8299ZM172.105 31.4465L172.16 32.4347C172.793 31.6705 173.623 31.2884 174.65 31.2884C176.432 31.2884 177.338 32.3082 177.37 34.3477V40H175.449V34.4584C175.449 33.9156 175.33 33.515 175.093 33.2568C174.861 32.9933 174.479 32.8615 173.947 32.8615C173.172 32.8615 172.595 33.212 172.216 33.9129V40H170.295V31.4465H172.105ZM181.741 29.3674V31.4465H183.251V32.8694H181.741V37.6442C181.741 37.971 181.805 38.2081 181.931 38.3557C182.063 38.498 182.295 38.5691 182.627 38.5691C182.848 38.5691 183.072 38.5428 183.299 38.4901V39.9763C182.861 40.0975 182.44 40.1581 182.034 40.1581C180.558 40.1581 179.82 39.3439 179.82 37.7154V32.8694H178.413V31.4465H179.82V29.3674H181.741ZM184.129 35.6442C184.129 34.8062 184.295 34.0526 184.627 33.3833C184.959 32.7087 185.425 32.1922 186.026 31.8339C186.627 31.4702 187.317 31.2884 188.097 31.2884C189.251 31.2884 190.187 31.6599 190.904 32.403C191.626 33.1461 192.016 34.1317 192.074 35.3596L192.081 35.8102C192.081 36.6534 191.918 37.4071 191.591 38.0711C191.27 38.7352 190.806 39.249 190.2 39.6126C189.599 39.9763 188.904 40.1581 188.113 40.1581C186.906 40.1581 185.939 39.7576 185.212 38.9565C184.49 38.1502 184.129 37.0777 184.129 35.7391V35.6442ZM186.05 35.8102C186.05 36.6903 186.232 37.3807 186.595 37.8814C186.959 38.3768 187.465 38.6245 188.113 38.6245C188.761 38.6245 189.265 38.3715 189.623 37.8656C189.987 37.3596 190.168 36.6192 190.168 35.6442C190.168 34.7799 189.981 34.0948 189.607 33.5888C189.238 33.0829 188.735 32.8299 188.097 32.8299C187.47 32.8299 186.972 33.0803 186.603 33.5809C186.234 34.0763 186.05 34.8194 186.05 35.8102ZM198.184 33.2015C197.931 33.1593 197.671 33.1382 197.402 33.1382C196.522 33.1382 195.929 33.4755 195.623 34.1501V40H193.702V31.4465H195.536L195.584 32.403C196.047 31.6599 196.69 31.2884 197.512 31.2884C197.786 31.2884 198.013 31.3253 198.192 31.3991L198.184 33.2015ZM204.588 37.9762C204.946 37.9762 205.223 38.079 205.418 38.2846C205.613 38.4848 205.71 38.7378 205.71 39.0435C205.71 39.3439 205.613 39.5942 205.418 39.7945C205.223 39.9895 204.946 40.087 204.588 40.087C204.245 40.087 203.974 39.9895 203.773 39.7945C203.573 39.5995 203.473 39.3491 203.473 39.0435C203.473 38.7378 203.57 38.4848 203.765 38.2846C203.96 38.079 204.235 37.9762 204.588 37.9762ZM204.588 31.2647C204.946 31.2647 205.223 31.3674 205.418 31.573C205.613 31.7732 205.71 32.0262 205.71 32.3319C205.71 32.6323 205.613 32.8826 205.418 33.0829C205.223 33.2779 204.946 33.3754 204.588 33.3754C204.245 33.3754 203.974 33.2779 203.773 33.0829C203.573 32.8879 203.473 32.6376 203.473 32.3319C203.473 32.0262 203.57 31.7732 203.765 31.573C203.96 31.3674 204.235 31.2647 204.588 31.2647ZM211.434 35.4466C211.434 36.6165 211.273 37.747 210.951 38.8379C210.63 39.9236 210.142 40.9117 209.489 41.8024C208.835 42.6983 208.153 43.3176 207.441 43.6601L207.062 42.5929C207.853 41.9816 208.477 41.0488 208.936 39.7945C209.399 38.5349 209.631 37.0988 209.631 35.4861V35.3043C209.631 33.8392 209.431 32.5058 209.03 31.3042C208.63 30.0973 208.055 29.1302 207.307 28.403L207.062 28.1816L207.441 27.1065C208.116 27.4332 208.77 28.013 209.402 28.8457C210.034 29.6783 210.519 30.6112 210.857 31.6441C211.194 32.6718 211.384 33.7338 211.426 34.83L211.434 35.4466Z" fill="black"/>
</svg>
