<svg width="41" height="67" viewBox="0 0 41 67" fill="none" xmlns="http://www.w3.org/2000/svg">
<path d="M17.8235 34.0536C18.39 33.0972 19.4191 32.5107 20.5306 32.5107C21.6626 32.5107 22.7073 33.1188 23.2664 34.1031L35.4837 55.6106C37.6466 59.4181 34.8965 64.143 30.5177 64.143H10.0213C5.59627 64.143 2.85214 59.328 5.10735 55.5208L17.8235 34.0536Z" fill="#E6FDFF"/>
<path d="M23.1482 32.635C22.4344 35.2905 18.6435 35.3326 17.9564 32.67C17.8916 32.4189 17.7907 32.1786 17.6568 31.9566L5.2415 11.3727C2.94855 7.57107 5.6797 2.72152 10.1193 2.7115L30.4424 2.66561C34.845 2.65567 37.6028 7.42057 35.4012 11.2331L23.4174 31.9852C23.3 32.1885 23.2092 32.4083 23.1482 32.635Z" fill="#E6FDFF"/>
<rect x="8.3031" y="63.7925" width="23.9438" height="2.85569" fill="#004AAD"/>
<rect x="8.3031" width="23.9438" height="2.85569" fill="#004AAD"/>
<path d="M19.0749 43.4912C19.7848 42.5591 21.1907 42.5695 21.8867 43.512L30.6284 55.3497C30.8921 55.7068 31.0109 56.1506 30.9608 56.5918L30.6297 59.5085C30.5289 60.3966 29.7775 61.0676 28.8836 61.0676H11.7C10.7919 61.0676 10.0334 60.3758 9.95004 59.4717L9.68396 56.587C9.64353 56.1486 9.76908 55.7111 10.0358 55.3608L19.0749 43.4912Z" fill="#FEC352"/>
<path d="M22.0548 29.9352C21.4389 31.2989 19.5092 31.3181 18.8663 29.967L15.21 22.2825C14.6551 21.1163 15.5054 19.7701 16.7968 19.7701L23.9236 19.7701C25.1998 19.7701 26.0505 21.0876 25.5252 22.2507L22.0548 29.9352Z" fill="#FEC352"/>
</svg>
